:SAMPLES-PER-SECOND 30
:FULLY-SPECIFIED
:DEGREES
1
root  -92.3438 37.5958 -0.505199 179.6 81.0959 179.801
RightUpLeg  -29.8648 1.08005 -2.08972
RightLeg  0.627535 -2.4547 1.13068
RightFoot  0.876218 -0.20294 1.63952
RightToes  1.80444e-009 -3.18055e-015 8.94531e-016
Spine  -3.76508 -8.45828 -12.1939
Spine1  13.686 -12.2887 12.2467
HEad  -11.649 6.96419 0.920671
LeftShoulder1  0 -2.69403e-036 -1.28585e-037
LeftArm  9.66495 -11.175 -75.9228
LeftForeArm  -35.9792 -34.3882 21.0525
LeftHand  0.772542 5.92728 2.7607
RightShoulder  -2.48481e-017 0 -8.08114e-019
RightArm  6.20398 -70.3311 55.005
RightForeArm  -13.022 9.80242 4.0691
RightHand  1.67851 -15.5322 -1.80437
LeftUpLeg  17.6657 0.661697 4.67953
LeftLeg  14.2802 -17.981 0.325839
LeftFoot  -13.629 -0.0669273 -7.18295
LeftToes  -1.10049e-010 -1.44524e-010 4.8374e-011
2
root  -90.946 37.5148 -0.388397 -173.339 80.1217 -173.525
RightUpLeg  -30.4259 0.964802 -0.939017
RightLeg  4.44454 -4.2587 0.31434
RightFoot  3.84591 -0.198908 1.30425
RightToes  1.80444e-009 -3.18055e-015 8.94531e-016
Spine  -3.87176 -8.82757 -10.1358
Spine1  13.3779 -12.624 12.2732
HEad  -11.5804 6.75922 0.73005
LeftShoulder1  0 -2.69403e-036 -1.28585e-037
LeftArm  9.20422 -8.48518 -77.0396
LeftForeArm  -35.9192 -34.2428 20.9924
LeftHand  0.72938 5.7398 3.55998
RightShoulder  -2.48481e-017 0 -8.08114e-019
RightArm  6.31185 -70.5624 55.7662
RightForeArm  -13.1566 10.1824 3.79228
RightHand  1.64457 -15.3231 -1.68596
LeftUpLeg  18.344 -2.65627 5.94317
LeftLeg  15.1138 -15.1969 -0.0796003
LeftFoot  -10.3841 0.266197 -10.7604
LeftToes  -1.10049e-010 -1.44524e-010 4.8374e-011
3
root  -88.6851 37.329 -0.192292 -164.382 78.4764 -164.729
RightUpLeg  -31.1746 -2.04886 2.66811
RightLeg  10.874 -2.37861 -1.08318
RightFoot  8.29475 0.0227959 -0.0966568
RightToes  1.80444e-009 -3.18055e-015 8.94531e-016
Spine  -3.24792 -8.95421 -6.51365
Spine1  12.3084 -12.6477 12.179
HEad  -11.9203 6.17858 0.365658
LeftShoulder1  0 -2.69403e-036 -1.28585e-037
LeftArm  10.1967 -3.78819 -79.6863
LeftForeArm  -36.2818 -33.0086 20.4352
LeftHand  0.697235 5.61689 4.26818
RightShoulder  -2.48481e-017 0 -8.08114e-019
RightArm  4.73035 -70.353 59.1399
RightForeArm  -13.7284 10.7554 3.40388
RightHand  1.56929 -14.8714 -1.3803
LeftUpLeg  18.0536 -7.19199 8.30314
LeftLeg  19.6452 -10.5359 -0.490542
LeftFoot  -1.94228 1.31803 -12.7527
LeftToes  -1.10049e-010 -1.44524e-010 4.8374e-011
4
root  -86.475 37.1125 0.020791 -156.857 77.1341 -156.623
RightUpLeg  -31.433 -6.1312 7.27588
RightLeg  17.6222 2.39795 -2.04279
RightFoot  9.45666 0.495613 -2.47538
RightToes  1.80444e-009 -3.18055e-015 8.94531e-016
Spine  -1.80513 -8.34601 -2.26342
Spine1  11.3848 -11.7008 11.6254
HEad  -12.6544 4.92072 0.454824
LeftShoulder1  0 -2.69403e-036 -1.28585e-037
LeftArm  15.6975 0.879862 -83.6287
LeftForeArm  -39.5823 -29.3756 19.2113
LeftHand  0.690682 5.56884 4.16247
RightShoulder  -2.48481e-017 0 -8.08114e-019
RightArm  -1.13531 -68.2713 66.108
RightForeArm  -12.9792 10.4253 3.73911
RightHand  1.46461 -14.3412 -0.740458
LeftUpLeg  15.5428 -8.16477 11.4455
LeftLeg  28.0867 -7.97691 0.943121
LeftFoot  10.6119 2.05255 -9.67259
LeftToes  -1.10049e-010 -1.44524e-010 4.8374e-011
5
root  -84.6164 37.049 0.232011 -151.047 76.5216 -149.801
RightUpLeg  -30.3584 -7.24019 10.033
RightLeg  23.0409 4.41288 -2.33732
RightFoot  6.08932 0.817569 -4.88523
RightToes  1.80444e-009 -3.18055e-015 8.94531e-016
Spine  -0.667457 -7.19626 1.54299
Spine1  11.5467 -10.0138 10.5576
HEad  -12.9168 3.14795 1.24756
LeftShoulder1  0 -2.69403e-036 -1.28585e-037
LeftArm  18.2654 4.50819 -87.4739
LeftForeArm  -39.0637 -24.6183 12.8284
LeftHand  0.687497 5.44326 3.15903
RightShoulder  -2.48481e-017 0 -8.08114e-019
RightArm  -7.46583 -63.1191 73.8231
RightForeArm  -10.9296 8.94965 5.01865
RightHand  1.39678 -14.0837 -0.154013
LeftUpLeg  11.363 -7.92282 13.6532
LeftLeg  37.7735 -5.8751 4.08664
LeftFoot  20.3463 1.88893 -6.06367
LeftToes  -1.10049e-010 -1.44524e-010 4.8374e-011
6
root  -82.7892 37.272 0.443977 -147.599 76.3683 -145.631
RightUpLeg  -27.6638 -6.78448 11.4215
RightLeg  25.52 4.28576 -2.7313
RightFoot  1.50591 0.767589 -5.98604
RightToes  1.80444e-009 -3.18055e-015 8.94531e-016
Spine  -0.746559 -6.02818 3.95388
Spine1  12.2953 -8.41217 9.52568
HEad  -11.8596 1.59994 2.06423
LeftShoulder1  0 -2.69403e-036 -1.28585e-037
LeftArm  1.27176 8.19144 -89.4272
LeftForeArm  -19.714 -15.4933 -0.428176
LeftHand  0.733506 5.50745 1.14488
RightShoulder  -2.48481e-017 0 -8.08114e-019
RightArm  -7.77796 -55.2725 79.0657
RightForeArm  -10.0663 8.70892 5.59734
RightHand  1.42503 -14.2479 -0.318946
LeftUpLeg  5.95764 -7.81678 14.2722
LeftLeg  46.6439 -5.04027 7.23633
LeftFoot  22.1105 1.32074 -3.89902
LeftToes  -1.10049e-010 -1.44524e-010 4.8374e-011
